<?xml version="1.0" encoding="UTF-8"?>
<svg xmlns="http://www.w3.org/2000/svg" xmlns:xlink="http://www.w3.org/1999/xlink"
     width="512" height="675" viewBox="0 0 512 675">
<defs>
</defs>
<path d="M144.75192624501568,460.9212902037342 L98.59429836252536,330.0981399885327 L27.12265516603952,247.66961910022613 Z" fill="#185462" stroke="#16384f" stroke-width="1.5" stroke-linejoin="round" />
<path d="M361.99589995470234,178.82127834034358 L496.48076787094624,264.7527072497646 L369.82675229525887,46.3287297232844 Z" fill="#1a4b64" stroke="#16384f" stroke-width="1.5" stroke-linejoin="round" />
<path d="M130.22407940912862,60.56597394967531 L27.12265516603952,247.6696191002261 L98.59429836252536,330.0981399885327 Z" fill="#23788c" stroke="#16384f" stroke-width="1.5" stroke-linejoin="round" />
<path d="M353.23080977478634,455.66419491787553 L98.59429836252536,330.0981399885327 L144.75192624501568,460.9212902037342 Z" fill="#17445b" stroke="#16384f" stroke-width="1.5" stroke-linejoin="round" />
<path d="M361.99589995470234,178.82127834034358 L369.82675229525887,46.3287297232844 L130.22407940912862,60.56597394967531 Z" fill="#257190" stroke="#16384f" stroke-width="1.5" stroke-linejoin="round" />
<path d="M361.99589995470234,178.82127834034358 L353.23080977478634,455.66419491787553 L496.48076787094624,264.7527072497646 Z" fill="#183f5c" stroke="#16384f" stroke-width="1.5" stroke-linejoin="round" />
<path d="M361.99589995470234,178.82127834034358 L130.22407940912862,60.56597394967531 L98.59429836252536,330.0981399885327 Z" fill="#2a7aa4" stroke="#16384f" stroke-width="1.5" stroke-linejoin="round" />
<path d="M361.99589995470234,178.82127834034358 L98.59429836252536,330.0981399885327 L353.23080977478634,455.66419491787553 Z" fill="#235a84" stroke="#16384f" stroke-width="1.5" stroke-linejoin="round" />
<path d="M416.76101810825975,379.7490013551157 L438.18344843935705,351.05527132005847 L441.03601017102864,329.76744317638787 L418.9828894755128,359.0050818824703 Z" fill="#eef6ff" stroke="#2f6fb0" stroke-width="0.8999999999999999" />
<path d="M63.26264193699669,271.0113804534306 L52.48808727395854,259.1868818730585 L54.85467286218491,297.18359297430175 L65.57906958224689,310.13976997901096 Z" fill="#eef6ff" stroke="#2f6fb0" stroke-width="0.8999999999999999" />
<path d="M393.04668444394815,140.616653303796 L393.5273098246555,143.41392998894884 L394.337673568698,146.54760834998652 L395.4656098577342,149.96324355547353 L396.8925889001183,153.6001112047998 L398.59396788570604,157.39239516422006 L400.5394199617223,161.27056236109195 L402.6935347740598,165.16288353701503 L405.0165749980697,168.9970491458616 L407.46536472713706,172.70182267758054 L409.99427835000455,176.20867041452772 L412.5562932762027,179.45330735901842 L415.10406702132104,182.37710378091452 L417.59099895212927,184.9283050909283 L419.972239358793,187.06302877040574 L422.2056131573787,188.74601485937626 L424.2524319164604,189.95111988761408 L426.078175402773,190.66155702063702 L427.65303176257305,190.86989662472752 L428.9522931429541,190.57785071084936 L429.95661045738984,189.79587136088136 L430.6521167037708,188.54259712549847 L431.0304325064403,186.84418262522826 L431.0885702912261,184.73354550174193 L430.82875476719596,182.24956190697793 L430.2581773392706,179.43623740065175 L429.3887009391268,176.34187497504962 L428.23652979911924,173.01825642239686 L426.82185617099964,169.5198478173616 L425.1684931569137,165.90303483442207 L423.3034998934464,162.2253892009399 L421.25680249345976,158.5449639688439 L419.0608115526202,154.91961257395857 L416.75003478377494,151.40632489629354 L414.3606815432987,148.06057275584863 L411.93025473089153,144.93565747076977 L409.4971248362957,142.08205324352673 L407.1000808208096,139.5467421842606 L404.7778530958833,137.37253966544338 L402.5686051194813,135.5974123362165 L400.50939207709456,134.25379537584422 L398.63558772237536,133.36792024933675 L396.9802836553521,132.9591690979343 L395.573668994518,133.03947663842814 L394.4424023712912,133.61280467836346 L393.6089921934889,134.6747176471219 L393.09120487746645,136.21208943871625 L392.9015238757793,138.20297191977016 Z" fill="#ffc857" stroke="#9c6b10" stroke-width="0.8999999999999999" />
<path d="M142.7164190874248,422.41726529498277 L136.19697704701497,402.8934198144258 L105.06780421262229,381.6976483593927 L112.43751897775414,401.5714255988129 Z" fill="#eef6ff" stroke="#2f6fb0" stroke-width="0.8999999999999999" />
<path d="M72.19214344137947,242.84285975984355 L73.4755011755752,243.75360430535233 L74.917941564975,244.11560079747855 L76.49631466873365,243.91665854140317 L78.18457146516579,243.15421890593632 L79.95413284287142,241.83581409048534 L81.77434581782575,239.97933237914947 L83.61302325039938,237.61305583074747 L85.43705845575599,234.77544246681 L87.21310104698253,231.5146340506933 L88.90827552865329,227.88768216345764 L90.49092001303606,223.95949882541873 L91.93131939511656,219.8015524508985 L93.20240576450036,215.4903443127991 L94.28039900282258,211.10571369521406 L95.14536250595214,206.72903033855772 L95.78165269036046,202.4413396440495 L96.17824612198362,198.3215287438221 L96.32893432103145,194.4445797187964 L96.2323830225038,190.87997016787085 L95.89205934619599,187.69027162602669 L95.31603641717143,184.92998395236054 L94.5166900324547,182.64462991931794 L93.51030567925974,180.8701200434226 L92.31661641677431,179.63238433189213 L90.95829283477934,178.94725600622832 L89.46040563095804,178.8205830586051 L87.84987953948254,179.2485370542472 L86.15495469313379,180.21808497894966 L84.40466832869433,181.70758896657387 L82.62836635715638,183.6875000660836 L80.85525098497502,186.1211153485183 L79.11396750530363,188.9653720916234 L77.43223073455545,192.1716580015438 L75.83648944776832,195.6866219713935 L74.35162561357495,199.45297533963986 L73.00068425307174,203.41027867971158 L71.80462932376608,207.49571358536215 L70.78212111744003,211.64484254079838 L69.94931120452813,215.7923626616887 L69.3196518960259,219.87286078549607 L68.90371846136489,223.82157802996394 L68.70904386732605,227.5751915029807 L68.73996751319316,231.0726193324618 L68.99750124624524,234.2558526127593 L69.47921775228454,237.0708142888119 L70.17916811611741,239.46824052072134 L71.08783680889056,241.40457485002034 Z" fill="#ffc857" stroke="#9c6b10" stroke-width="0.8999999999999999" />
<path d="M220.31204604309795,436.28207284091536 L223.1583616380007,435.70198340161835 L225.5945781260414,434.84310939452536 L227.57642844354785,433.71711233954716 L229.06619937752777,432.34024042902104 L230.0336129411512,430.73325391097046 L230.45665280425172,428.921263572628 L230.32230347156747,426.9334715552346 L229.62716656512876,424.8028062193032 L228.37791709528204,422.56544641362154 L226.59156347771815,420.2602352018299 L224.29547862756021,417.92798867085946 L221.52717589820264,415.6107115675681 L218.3338128406043,413.35073775495545 L214.7714173551899,411.1898193379783 L210.90384411515882,409.1681932380724 L206.80148322071432,407.3236574783301 L202.5397567844684,405.69069105343664 L198.19745137291162,404.29965072884033 L193.85494383594067,403.1760753702368 L189.59238415668926,402.3401235955894 L185.48790098538072,401.80616402751923 L181.6158933223888,401.58252973691754 L178.04546564512898,401.67144025205585 L174.83905426876595,402.0690864370297 L172.05128082071982,402.7658662486191 L169.72805549014183,403.7467533765066 L167.90593931494868,404.9917764106061 L166.6117622258996,406.4765836282738 L165.86248272135785,408.1730677391245 L165.66526648385474,410.0500257956642 L166.01775527884078,412.07383168777756 L166.90849414243587,414.20910183333734 L168.3174839928392,416.41933847825794 L170.21682805056594,418.66753906621784 L172.57144338717626,420.91676411551975 L175.33981306089686,423.13065969526417 L178.4747591679627,425.27393374143617 L181.92422230981822,427.3127879786624 L185.6320380798755,429.2153090568851 L189.53870591078572,430.95182366270836 L193.5821497639476,432.4952228463866 L197.69847351739813,433.82126066497307 L201.8227163957415,434.90883154301343 L205.8896153039488,435.74022956699855 L209.83438142237895,436.30139133839305 L213.5934978638131,436.5821220995953 L217.10554357860673,436.57630271453104 Z" fill="#ffc857" stroke="#9c6b10" stroke-width="0.8999999999999999" />
<path d="M383.707846901939,126.1151469005436 L384.31937125265506,105.92946415454443 L349.3382178621788,85.62077100940132 L347.5824429968506,105.3198579108792 Z" fill="#eef6ff" stroke="#2f6fb0" stroke-width="0.8999999999999999" />
<path d="M256.5384493504289,92.97606250506297 L258.60690172008185,95.20524672319982 L261.1925284828799,97.36652993079429 L264.2526299308886,99.42033923816246 L267.7347932992048,101.328594384664 L271.57777547705814,103.05556659393574 L275.71265557506206,104.56871066793636 L280.0642319962944,105.8394393212985 L284.5526250465428,106.84380956888398 L289.09503420523407,107.56309380993963 L293.6075900363234,107.98421297923642 L298.0072351957878,108.10001544130975 L302.21356760265417,107.9093927050173 L306.1505816951149,107.41723093635099 L309.74825048882394,106.63420500902848 L312.9439012160971,105.57642884738826 L315.68334969779573,104.26498157610692 L317.92177217305823,102.72533313774267 L319.6243069525823,100.98669539124404 L320.7663909379073,99.08132526157155 L321.33384693071696,97.04380543152266 L321.3227461707581,94.91032563355037 L320.73907639634047,92.71798417031155 L319.5982488890164,90.50412525575669 L317.92447863629826,88.30572349917287 L315.7500702776653,86.15882268348116 L313.1146393429105,84.09803218208154 L310.06429394102133,82.15608110757987 L306.65079699646594,80.3634277098445 L302.9307237986434,78.74791969397575 L298.96462440601084,77.33450001182538 L294.8161956335181,76.14495225488582 L290.55146318443025,75.19767997585336 L286.23797113669315,74.50751500857484 L281.94397357917035,74.08555104995392 L277.73762179299916,73.9390003165853 L273.68614003458646,74.07107289400432 L269.8549837190113,74.48088035408782 L266.30697561884733,75.16336721665229 L263.1014185456453,76.10927575617444 L260.29318679168586,77.30515137459224 L257.93180324866273,78.73339713644066 L256.06051439367764,80.37238694556277 L254.71538097170608,82.19664708495816 L253.92440785616125,84.17711530502382 L253.7067418049904,86.28148521846941 L254.0719701543428,88.47464137512193 L255.0195563760898,90.71918704407821 Z" fill="#ffc857" stroke="#9c6b10" stroke-width="0.8999999999999999" />
<path d="M425.1141075393614,239.84130270324906 L445.52162864488173,252.26850426538783 L446.1187377724237,212.7362400572387 L425.9807634731799,199.27098679807108 Z" fill="#eef6ff" stroke="#2f6fb0" stroke-width="0.8999999999999999" />
<path d="M407.08548260989596,333.9663592146729 L409.78045162725135,332.4751536707368 L412.4413143652523,330.4733043426013 L415.0248776917598,327.9974063831712 L417.4897785215179,325.09085435257373 L419.7970009743086,321.80304743839474 L421.9103363395159,318.18857910528186 L423.79679094906396,314.3064209700685 L425.4269477664039,310.2191062256622 L426.77528747068703,305.991914023233 L427.8204741333916,301.6920530461087 L428.5456093453722,297.38784020066333 L428.93845696146104,293.14786900028673 L428.9916386011829,289.0401618863848 L428.70279779996275,285.13130144409627 L428.07472837775083,281.4855372290077 L427.1154603260811,278.16386768897604 L425.8382944689055,275.22310036360597 L424.2617754988252,272.7148980405137 L422.4095919090112,270.68482364465996 L420.3103910126424,269.1714020630314 L417.997497832921,268.2052225121652 L415.5085282925008,267.80811001795735 L412.88488991245515,267.99239861710834 L410.1711671516929,268.76034150271596 L407.4143934838794,270.10369403627465 L404.6632181135147,272.0035039216672 L401.96698155197527,274.4301386059563 L399.37472067768147,277.34357305442614 L396.93412988252396,280.6939516039033 L394.6905099142702,284.42242605753194 L392.68573953847306,288.462259235975 L390.9573067251973,292.74016975247315 L389.5374354235857,297.1778808785799 L388.45234102334854,301.6938250900214 L387.7216424399205,306.20494721155455 L387.3579517415609,310.62854378752866 L387.3666538917312,314.88407485425506 L387.74588016798396,318.89488677830053 L388.4866698529995,322.58979097318576 L389.5733065610283,325.9044525025267 L390.9838086489134,328.7825539547968 L392.6905479911927,331.1767125255317 L394.66096820781985,333.0491409356994 L396.85837225744893,334.37205470622314 L399.2427500067221,335.1278386287664 L401.77161867285355,335.3089934814847 L404.4008525360106,334.9178898440466 Z" fill="#ffc857" stroke="#9c6b10" stroke-width="0.8999999999999999" />
<path d="M101.9510671214471,173.29996351892726 L97.00993567703546,213.79582796372614 L128.67635201320044,206.79846887057857 L133.3368501456504,165.3935050175007 Z" fill="#eef6ff" stroke="#2f6fb0" stroke-width="0.8999999999999999" />
<path d="M259.8646604846544,390.94582101823676 L220.7897945845268,371.507516973189 L199.87377021543034,398.45175459585664 L238.23524738634356,417.2065101241924 Z" fill="#eef6ff" stroke="#2f6fb0" stroke-width="0.8999999999999999" />
<path d="M270.84341730824195,111.7999281915063 L235.77525153570429,94.24626310464114 L208.52581942864322,121.06170052261845 L243.78189808547722,139.4017348699302 Z" fill="#eef6ff" stroke="#2f6fb0" stroke-width="0.8999999999999999" />
<path d="M169.95758004544393,214.1379481303088 L173.42681659069797,216.5214509878955 L177.255570746815,218.39287972687075 L181.3790865300386,219.71692855394474 L185.72668887455907,220.4676815925979 L190.2229940379691,220.62928334627333 L194.7892622129673,220.19642203225308 L199.34486573049128,219.17460200917634 L203.8088398595582,217.58018702687662 L208.10147786422255,215.44020296752558 L212.1459281080842,212.7918967993619 L215.86974896011145,209.68205719176316 L219.2063772893978,206.16611112429328 L222.09646852733,202.30701930532445 L224.48907054445817,198.1740007523443 L226.34259969415112,193.84112299326597 L227.6255949312436,189.385798651169 L228.31723442971554,184.8872314411346 L228.4076080469959,180.42485476490464 L227.8977477530554,176.07680422622082 L226.79942624084367,171.91846174184897 L225.1347409260379,168.02110384140425 L222.93550610922586,164.45068066086162 L220.24248002562,161.26674550133455 L217.104455793821,158.52154809918773 L213.57724596733485,156.25929834413876 L209.7225896646322,154.5156014252293 L205.6070093552648,153.31706052826988 L201.30064160677466,152.6810394053815 L196.8760627632438,152.6155744478997 L192.40712693744666,153.11942429577596 L187.96783013382182,154.18224441885545 L183.63121101726267,155.7848743651972 L179.46829599245274,157.89972631081005 L175.54709399722685,160.49126496568567 L171.9316448262157,163.5165705878265 L168.68112392345606,166.9259786287802 L165.84900640493055,170.6637911914912 L163.4822935433649,174.6690568525716 L161.62080598052927,178.8764163377685 L160.29654940641996,183.21701192000472 L159.53316021060783,187.61945814379848 L159.3454404941627,192.01087051391022 L159.73899363602925,196.31794710631127 L160.70997312675604,200.4680956984751 L162.2449584009938,204.39059605642512 L164.32097171015693,208.01778359435195 L166.90564949020788,211.28623692938382 Z" fill="#ffc857" stroke="#9c6b10" stroke-width="0.8999999999999999" />
<path d="M338.2102459404874,305.4415045757439 L337.1290217954118,347.8069326708448 L376.0668180283755,340.4554094144587 L377.63970935565186,298.7155462872075 Z" fill="#eef6ff" stroke="#2f6fb0" stroke-width="0.8999999999999999" />
<path d="M271.9263605237319,359.4465484026061 L276.6722815614645,359.02258203395917 L281.3396219745415,358.03106685946733 L285.8511137261145,356.4884669320718 L290.13195391654614,354.42007574394063 L294.1109258866594,351.85965605289584 L297.7214822814992,348.8489694859077 L300.9027803486348,345.43719719695986 L303.6006586161661,341.68025292325785 L305.76854271342484,337.63999031734477 L307.36826660891415,333.38330751063404 L308.3707941166171,328.98115352882854 L308.75682435157097,324.5074434333473 L308.51726409383946,320.0378918607893 L307.65354993725214,315.64877788075023 L306.177803827284,311.4156576469145 L304.11280726885514,307.41204498596176 L301.4917821974541,303.7080836220114 L298.35797027928305,300.36923791139117 L294.76400718560456,297.4550314920183 L290.77109403794753,295.0178648708169 L286.4479745262113,293.10194345012917 L281.86973286753175,291.7423466536718 L277.116434447067,290.96426655417724 L272.2716372736431,290.78244072114575 L267.4208078981275,291.2007989929426 L262.6496798117937,292.21233772988757 L258.0425952568516,293.79922811342306 L253.68087262177607,295.93315758305374 L249.6412410510155,298.57589595461184 L245.99438158576783,301.68007055947754 L242.8036102061187,305.1901282806738 L240.12373281211325,309.04345697861913 L238.0000957978481,313.1716347545846 L236.46784883217808,317.50177295051515 L235.5514291796616,321.95791777794045 L235.26426978250805,326.46247594795676 L235.60872674289135,330.93763148625504 L236.57621609228903,335.30672383485177 L238.14754502398995,339.4955610882662 L240.2934192188079,343.4336464850329 L242.97510554435112,347.0553007752984 L246.14522820512173,350.30066753434375 L249.74867624644483,353.116592652578 L253.7236010010225,355.45737291852515 L258.0024834114014,357.2853716934419 L262.5132529485164,358.57150208336606 L267.1804418603,359.2955797304124 Z" fill="#ffc857" stroke="#9c6b10" stroke-width="0.8999999999999999" />
<path d="M237.13000330054228,223.74935968413735 L197.15321990839246,246.82067641008692 L219.84894383756,287.19846820407145 L260.02082127949745,264.23934699968635 Z" fill="#eef6ff" stroke="#2f6fb0" stroke-width="0.8999999999999999" />
<text x="256.0" y="613.06" font-size="89.65" font-family="Helvetica, Arial, sans-serif" font-weight="bold" fill="#1f3a4d" text-anchor="middle" dominant-baseline="central">ICON4Py</text>
</svg>