<?xml version="1.0" encoding="UTF-8"?>
<svg xmlns="http://www.w3.org/2000/svg" xmlns:xlink="http://www.w3.org/1999/xlink"
     width="512" height="675" viewBox="0 0 512 675">
<defs>
</defs>
<path d="M144.75192624501568,460.9212902037342 L98.59429836252536,330.0981399885327 L27.12265516603952,247.66961910022613 Z" fill="#185462" stroke="#16384f" stroke-width="6.0" stroke-linejoin="round" />
<path d="M361.99589995470234,178.82127834034358 L496.48076787094624,264.7527072497646 L369.82675229525887,46.3287297232844 Z" fill="#1a4b64" stroke="#16384f" stroke-width="6.0" stroke-linejoin="round" />
<path d="M130.22407940912862,60.56597394967531 L27.12265516603952,247.6696191002261 L98.59429836252536,330.0981399885327 Z" fill="#23788c" stroke="#16384f" stroke-width="6.0" stroke-linejoin="round" />
<path d="M353.23080977478634,455.66419491787553 L98.59429836252536,330.0981399885327 L144.75192624501568,460.9212902037342 Z" fill="#17445b" stroke="#16384f" stroke-width="6.0" stroke-linejoin="round" />
<path d="M361.99589995470234,178.82127834034358 L369.82675229525887,46.3287297232844 L130.22407940912862,60.56597394967531 Z" fill="#257190" stroke="#16384f" stroke-width="6.0" stroke-linejoin="round" />
<path d="M361.99589995470234,178.82127834034358 L353.23080977478634,455.66419491787553 L496.48076787094624,264.7527072497646 Z" fill="#183f5c" stroke="#16384f" stroke-width="6.0" stroke-linejoin="round" />
<path d="M361.99589995470234,178.82127834034358 L130.22407940912862,60.56597394967531 L98.59429836252536,330.0981399885327 Z" fill="#2a7aa4" stroke="#16384f" stroke-width="6.0" stroke-linejoin="round" />
<path d="M361.99589995470234,178.82127834034358 L98.59429836252536,330.0981399885327 L353.23080977478634,455.66419491787553 Z" fill="#235a84" stroke="#16384f" stroke-width="6.0" stroke-linejoin="round" />
<path d="M96.04531230473933,360.69595269033607 L96.64758205306356,361.39995792565713 L97.12700877718277,361.8582439891243 L97.4747404448544,362.0615905548694 L97.68404569246371,362.0049781399271 L97.75048091686782,361.68777730157956 L97.67202453612316,361.11386825212696 L97.44917224728684,360.2916814586846 L97.08498747315008,359.23415102539116 L96.58510194097852,357.9585745647713 L95.95766248451744,356.4863758284764 L95.2132216840777,354.84276950275597 L94.36457180319982,353.056331140336 L93.4265235559094,351.15847900489393 L92.41563342900136,349.18287841348354 L91.34988545175025,347.1647827201596 L90.24833530453321,345.14032813507544 L89.13072634610344,343.14580188694595 L88.017088393146,341.2169046312938 L86.92733081286244,339.3880283690396 L85.88084163803202,337.6915704374936 L84.89610397870123,336.1573024212319 L83.99034002603372,334.81181023548265 L83.17919150393283,333.6780183563859 L82.4764436370246,332.77480745194543 L81.89379770361268,332.1167307656831 L81.44069516996242,331.7138307778773 L81.12419439190936,331.57155414546446 L80.94889903788851,331.69075988518233 L80.91693582499354,332.0678133437951 L81.02797792733517,332.69475676304353 L81.27930954330097,333.5595462066131 L81.66592659563668,334.64634423281257 L82.18066836095608,335.9358578907932 L82.8143749394986,337.4057122831238 L83.55606582479044,339.0308509506641 L84.39313535240163,340.78395556935754 L85.31156143148485,342.6358787792559 L86.29612462890611,344.55608528103636 L87.33063532571555,346.51309753691237 L88.39816724913177,348.4749434213749 L89.48129615852443,350.4096039216088 L90.56234279869045,352.2854594455879 L91.62361940513938,354.07173343420027 L92.64767904078883,355.7389317868088 L93.61756685779474,357.25927610982524 L94.51707201859313,358.6071280153845 L95.33097849336991,359.75940068029183 Z" fill="#ffc857" stroke="#9c6b10" stroke-width="3.5999999999999996" />
<path d="M243.33274036626682,456.64350185800896 L225.52992608895127,457.1149722558856 L239.40768980812297,460.2761685855005 L257.10311634515404,459.85179684374987 Z" fill="#eef6ff" stroke="#2f6fb0" stroke-width="3.5999999999999996" />
<path d="M261.38678032181343,51.20641264145445 L241.0742032261685,52.40008727748739 L250.46663936218485,55.029586999808316 L271.0723541778242,53.79139143520797 Z" fill="#eef6ff" stroke="#2f6fb0" stroke-width="3.5999999999999996" />
<path d="M422.0126480952033,368.9360359359364 L434.13805684817083,352.73022759926175 L435.66686300623604,340.8223733157398 L423.34195840974405,357.2002504543391 Z" fill="#eef6ff" stroke="#2f6fb0" stroke-width="3.5999999999999996" />
<path d="M61.35782371546725,276.9406728739799 L55.30442263993308,270.1486582617167 L56.62998231256552,291.6574337065582 L62.66753049054179,298.807440436267 Z" fill="#eef6ff" stroke="#2f6fb0" stroke-width="3.5999999999999996" />
<path d="M401.97881384462875,150.45916653265715 L402.24944998613023,151.96781492127684 L402.6937333417018,153.65047213143103 L403.30452843733406,155.47808320717365 L404.0715864157655,157.4187061793093 L404.9817046043948,159.4381034117265 L406.0189565588785,161.50039851649933 L407.16498855528596,163.5687826532561 L408.39937585093764,165.60625148614835 L409.70002959917554,167.57635235562822 L411.04364325197605,169.44392047442906 L412.40616575678877,171.17578324723144 L413.76328795115836,172.74141313014084 L415.0909283324554,174.11351169747633 L416.3657048288171,175.26851060642454 L417.56538026761774,176.18697872735223 L418.6692708308551,176.8539285890145 L419.6586087704669,177.25901921538394 L420.51685287884766,177.39665616145825 L421.2299425140826,177.2659928815259 L421.78649321816295,176.87084032703018 L422.1779340128302,176.21949377209125 L422.3985882134964,175.3244872617405 L422.4457010015286,174.20228678462462 L422.31941800715526,172.8729333481537 L422.022719778476,171.35964667452922 L421.5613172719843,169.6883993581763 L420.94351344258484,167.88747015703345 L420.18003569631105,165.98698376065167 L419.2838434648678,164.01844300810524 L418.26991453854714,162.0142582256517 L417.1550131222261,160.00727720780208 L415.9574419225788,158.0303184465339 L414.69677999084615,156.11570957237802 L413.3936075835851,154.29483263890023 L412.06921900339137,152.59767787039277 L410.74532427212085,151.05240779464725 L409.4437405891965,149.6849342737931 L408.18607484407903,148.51851178406872 L406.99339897918503,147.5733513205289 L405.885920718122,146.86626043895842 L404.8826530502687,146.41031610322926 L404.0010868477329,146.21457807765626 L403.25687202121657,146.2838514772051 L402.6635136208078,146.61850764705179 L402.232090169496,147.2143726746791 L401.9710021889582,148.06269244386107 L401.8857592473626,149.1501821461707 Z" fill="#ffc857" stroke="#9c6b10" stroke-width="3.5999999999999996" />
<path d="M134.58116321046867,413.6184156139452 L130.80726758604993,402.5935323039254 L113.4047060245004,390.7145922586092 L117.4475637181684,401.8501882771317 Z" fill="#eef6ff" stroke="#2f6fb0" stroke-width="3.5999999999999996" />
<path d="M76.80353883350767,228.3585800731618 L77.5038153538539,228.82118751604705 L78.28741960522095,228.98679405535032 L79.14137234731888,228.85082562931237 L80.05132147082512,228.4138952597509 L81.0017681026564,227.6819108245163 L81.97632516842125,226.66608379693469 L82.95800472020827,225.38283087917068 L83.92952888514017,223.85356323658252 L84.87365790164716,222.1043614782892 L85.7735274879924,220.16553847783803 L86.61298683152421,218.0710963812466 L87.37692788658322,215.85808845629978 L88.05159649247196,213.56590051877316 L88.6248761099782,211.23547024772685 L89.08653573055904,208.90846551658376 L89.42843470439604,206.62644471222967 L89.64467879477004,204.43002275447483 L89.73172359949399,202.3580661115129 L89.68842346758092,200.44693857227367 L89.51602605328844,198.72981700809174 L89.21811456476834,197.23609303006953 L88.80050146881476,195.99087257216712 L88.27107881735603,195.01458127679433 L87.63963140503142,194.3226794031285 L86.91761962177625,193.9254860686426 L86.11793913224625,193.82810917898843 L85.2546644250551,194.0304745527933 L84.34278288086114,194.52744559735692 L83.39792537580476,195.30902346947457 L82.43609863976212,196.36061693895928 L81.47342370235185,197.66337109239743 L80.52588385393344,199.19454446972776 L79.60908468546273,200.92792509407712 L78.73802799996392,202.83427700420293 L77.92690074667274,204.88181019751985 L77.18887964071274,207.0366682166149 L76.53595180826497,209.2634288533833 L75.97875164012788,211.52561450935326 L75.52641403608055,213.786209564208 L75.18644436082215,216.00818261254136 L74.96460568458158,218.15501159725062 L74.86482421682032,220.19120968271804 L74.8891142238248,222.0828491786419 L75.0375241103975,223.79807997350875 L75.30810569944106,225.30763781399625 L75.69690901665714,226.5853364432427 L76.19800503696695,227.60853617805273 Z" fill="#ffc857" stroke="#9c6b10" stroke-width="3.5999999999999996" />
<path d="M210.07579760932322,428.580520450663 L211.60170290577068,428.2542587455614 L212.9000864693279,427.77711685731913 L213.9479440506512,427.1563685262263 L214.72620739985965,426.4017571450321 L215.22014456639724,425.5253885789972 L215.41970572795083,424.54157948447994 L215.3198026656828,423.46665987002484 L214.92051000880167,422.3187298502491 L214.2271770239944,421.1173720100444 L213.250440094788,419.88332246785933 L212.0061281469657,418.63810552033806 L210.5150560979008,417.40363856290105 L208.80270484847748,416.20181569302605 L206.8987902438964,415.05407988929346 L204.836727597799,413.9809947980373 L202.65300255574132,413.00182784482644 L200.3864630005556,412.13415654128704 L198.07755010691878,411.3935094369517 L195.76748929582018,410.79305217174635 L193.49746353246167,410.3433275631231 L191.30779203397725,410.0520567003991 L189.23713696850717,409.92400573976363 L187.32175918199317,409.96092064216737 L185.59484151037293,410.1615296280647 L184.08589501490667,410.5216107883632 L182.82025975477706,411.0341202227851 L181.81870774319012,411.6893743797043 L181.09715177795678,412.47527901463945 L180.66646012792134,413.3775963991614 L180.5323737844451,414.3802420922826 L180.6955202919637,415.4656026944018 L181.1515161357191,416.6148664761658 L181.89114831425422,417.8083595306955 L182.90062503487803,419.02588104846814 L184.1618853765118,420.24703236992997 L185.65295817016448,421.45153554764227 L187.34836113763106,422.61953817401206 L189.2195323800288,423.73190214279117 L191.23528749585148,424.7704747681549 L193.36229681693771,425.718341255467 L195.5655783760584,426.5600578887617 L197.80900317337722,427.2818654711093 L200.0558100202008,427.87188253695894 L202.2691276554409,428.32027767236787 L204.41250192073585,428.61941996083294 L206.45042553178496,428.7640061580385 L208.34886740405025,428.75116273345185 Z" fill="#ffc857" stroke="#9c6b10" stroke-width="3.5999999999999996" />
<path d="M376.0509868790575,117.09381683166993 L376.5338315992481,105.80027225395952 L356.7198835933941,94.31786653163695 L355.875068203208,105.45746430156515 Z" fill="#eef6ff" stroke="#2f6fb0" stroke-width="3.5999999999999996" />
<path d="M270.98928402574825,91.87662184019257 L272.11699076833685,93.066443478124 L273.5160641868827,94.21729730068151 L275.16297537986907,95.30874398846001 L277.02950256958945,96.32126807840922 L279.08321426814064,97.2366702626681 L281.2880566737761,98.03844008660872 L283.6050332354881,98.71209823047107 L285.99296043774024,99.24549812931014 L288.40928054414786,99.62907778069774 L290.81090953247116,99.85605416395222 L293.155096933922,99.92255466506973 L295.4002738661432,99.82768215217035 L297.5068662471863,99.57351273907159 L299.43805193817917,99.16502766177746 L301.160443247475,98.60998293013625 L302.6446796374217,97.9187223770302 L303.8659193618371,97.1039413094598 L304.804222863787,96.18040910311478 L305.44482482003014,95.1646597451103 L305.778295497353,94.0746595257313 L305.80059539683157,92.92946084889823 L305.5130298684219,91.74885053791809 L304.9221124021118,90.55300014057869 L304.0393466218974,89.3621246771477 L302.8809376545853,88.19615511831876 L301.46744358767285,87.07442871329715 L299.82337727031404,86.01540018531017 L297.97676786835314,85.03637583236517 L295.9586904864147,84.15327175816228 L293.80277094389237,83.38039683825659 L291.5446715560685,82.73026061072761 L289.2215626318755,82.21340606557467 L286.8715834445609,81.83826727752407 L284.53329573049615,81.6110519575189 L282.24513237436594,81.53564925532336 L280.0448438752875,81.61356348947623 L277.9689454664477,81.84387486655154 L276.0521683678952,82.22322863137072 L274.3269195540154,82.7458544139088 L272.82275555824106,83.40361775782196 L271.56587714077654,84.1861058829457 L270.57865301357145,85.08074960800622 L269.87918213596043,86.07298300659821 L269.4809052365048,87.14644176723027 L269.3922770468897,88.28320037003792 L269.616511119109,89.46404708995738 L270.15140891653476,90.66879452076546 Z" fill="#ffc857" stroke="#9c6b10" stroke-width="3.5999999999999996" />
<path d="M429.86175107607176,233.7147880226476 L441.3057141099166,240.83436344079965 L441.67327879505365,218.47280588748214 L430.3145626237503,211.02484693497078 Z" fill="#eef6ff" stroke="#2f6fb0" stroke-width="3.5999999999999996" />
<path d="M407.7865496600281,319.15156208652576 L409.2452315460481,318.3662621441963 L410.68894484452727,317.30032565676544 L412.0936602954379,315.9727045857959 L413.4361712817054,314.40644324994014 L414.6944348931968,312.62826456934266 L415.84788705248565,310.6681200372466 L416.8777303553819,308.5587103359548 L417.7671938002036,306.334982430598 L418.5017638746034,304.03360796662395 L419.06938655055205,301.6924469512867 L419.46063963242904,299.350000084225 L419.6688746461757,297.0448527673219 L419.69032709371163,294.8151137996177 L419.52419347750265,292.6978520589381 L419.1726730812045,290.7285350770879 L418.6409721322833,288.94047429762634 L417.9372677303509,287.36428291072144 L417.072628857121,286.02735341372636 L416.0608919411592,284.95336335474786 L414.9184888741876,284.1618189685109 L413.66422609326304,283.6676474858003 L412.31901436452426,283.48084966019195 L410.90555021771195,283.6062243816498 L409.4479515502845,284.0431770214558 L407.9713516839972,284.78562228645194 L406.5014580288514,285.82199079774875 L405.0640833814976,287.13534634075 L403.68465963442736,288.7036178039167 L402.3877451689693,290.4999463346126 L401.19653832376815,292.49314434853346 L400.13240996154457,294.6482589392456 L399.2144682184294,296.92722818503796 L398.45916796725646,299.28961509590744 L397.87997635817896,301.6934007319814 L397.48710406282237,304.09581557475667 L397.2873096324172,306.45418671278287 L397.28378181405776,308.7267779157736 L397.47610190712123,310.8736002410153 L397.8602854514297,312.85717239030265 L398.42889988528066,314.64321248905867 L399.1712524438375,316.2012461073807 L400.0736406069189,317.5051189607283 L401.11965593329865,318.5334065723332 L402.2905311783759,319.2697170097065 L403.56552018450645,319.7028864060529 L404.92230012224707,319.8270701643192 L406.33738617988115,319.6417353856322 Z" fill="#ffc857" stroke="#9c6b10" stroke-width="3.5999999999999996" />
<path d="M107.6293868819431,180.41738904519576 L104.88302381284103,203.30565118687403 L122.6588171729029,199.25585804835842 L125.3164214612982,176.07999972881402 Z" fill="#eef6ff" stroke="#2f6fb0" stroke-width="3.5999999999999996" />
<path d="M246.5934581651432,392.60628584311877 L224.70310811162398,381.7585829732598 L212.8497776140068,396.8282239364628 L234.5144277201675,407.4596887391383 Z" fill="#eef6ff" stroke="#2f6fb0" stroke-width="3.5999999999999996" />
<path d="M257.2275805750183,113.82354245475753 L237.47909268294956,103.85549842415872 L222.17394553453997,119.03328734495801 L241.98188083749042,129.25009054377898 Z" fill="#eef6ff" stroke="#2f6fb0" stroke-width="3.5999999999999996" />
<path d="M180.8755131525097,201.25870373591238 L182.75085047599862,202.52692186391795 L184.81579098521735,203.5185146546556 L187.03520924431018,204.21556657281712 L189.37108436535024,204.60521318970186 L191.78315260815293,204.6799259580547 L194.22961573265707,204.4377008215985 L196.66789177900378,203.88214319275306 L199.0553930546842,203.02244420071656 L201.35031462597053,201.87324584567972 L203.51241564887334,200.45439568681442 L205.50377551442674,198.7905948112927 L207.28950707259364,196.9109459328913 L208.83841014872488,194.84841140035286 L210.12355014616813,192.6391935120471 L211.12274866914532,190.32205170582037 L211.81897569790928,187.93757281889862 L212.20063577332516,185.52741162390245 L212.2617437535372,183.1335192133845 L212.00198883878204,180.79737653625523 L211.4266885747642,178.55924953169765 L210.54663730915104,176.45748093835164 L209.37785598258245,174.5278320817403 L207.94125210787342,172.8028858795613 L206.26220028432368,171.3115200768449 L204.37005459655504,170.07845745203792 L202.29760477772945,169.1238975304775 L200.08048811980552,168.46323229556253 L197.75656885299307,168.10684657051456 L195.36529617030115,168.06000220128163 L192.94705132503907,168.32280392604906 L190.54249336344196,168.89024386847555 L188.1919121499638,169.75232091971907 L185.9345964680361,170.89423084184335 L183.80822418981896,172.29662268347846 L181.84828084482376,173.93591699107733 L180.08751240282004,175.78468126573222 L178.55541772787785,177.81205809685434 L177.2777859482038,179.9842413449382 L176.27628389603018,182.2649955985969 L175.56809876543457,184.61621385901748 L175.16564116497102,186.99850798378992 L175.07631374975045,189.37182584237684 L175.30235054284668,191.69608840414284 L175.8407318364999,193.93183912053803 L176.68317914078204,196.04089701611807 L177.81623397026897,197.987003924624 L179.22142328935666,199.7364553658296 Z" fill="#ffc857" stroke="#9c6b10" stroke-width="3.5999999999999996" />
<path d="M346.68841947310284,313.2830481943243 L346.01808953495043,337.0350429480866 L367.9794222402998,332.9752998615047 L368.8052906252846,309.4212116186682 Z" fill="#eef6ff" stroke="#2f6fb0" stroke-width="3.5999999999999996" />
<path d="M272.0047327909759,343.8609006615803 L274.5730467240929,343.6332662478069 L277.09890982649114,343.09692304251234 L279.53986278082294,342.26090144018406 L281.8548396857131,341.13918295746237 L284.0048236816494,339.7504826371023 L285.9534745746522,338.1179608149438 L287.66772037474107,336.26886708873553 L289.11830466116,334.23411994122574 L290.28028168544404,332.0478261889034 L291.133451171806,329.7467452656343 L291.6627249225881,327.3697043079598 L291.85841763729564,324.9569710727826 L291.7164548577568,322.54959286075507 L291.23849170396437,320.18871079786356 L290.43193709953385,317.91485998853796 L289.30987952252883,315.7672671306736 L287.8909119588469,313.7831581037971 L286.1988556631613,311.99708873121523 L284.26238450643046,310.44031230294905 L282.11455404737075,309.14019746439635 L279.79224192630096,308.11970967567385 L277.33550864546885,307.3969685971816 L274.7868901614797,306.9848924500111 L272.19063585966234,306.89093865317875 L269.5919072973611,307.1169478978283 L267.03595449466593,307.65909635150217 L264.56728743708203,308.50795798541316 L262.22886078014466,309.6486761932099 L260.0612894855932,311.0612410397542 L258.10211227885645,312.7208657637188 L256.3851184363707,314.59845367308856 L254.93975155573247,316.6611444189358 L253.79060172302087,318.872926890943 L252.95699497829727,321.1953047038974 L252.45268631033116,323.58799946593433 L252.28565970436668,326.0096767367141 L252.45803613506365,328.41867977063396 L252.96608794006625,330.7737567474673 L253.8003558087035,333.0347681535901 L254.94586273357334,335.16336221244444 L256.38241773485123,337.12360768874817 L258.08500098917494,338.8825749232677 L260.02422116632874,340.41085751560394 L262.1668352686945,341.683028593498 L264.4763210372372,342.6780270341557 L266.9134919806134,343.3794702968977 L269.4371452428058,343.77589166409433 Z" fill="#ffc857" stroke="#9c6b10" stroke-width="3.5999999999999996" />
<path d="M233.3447364427685,237.64733903837035 L210.8339268650539,250.6111777607628 L223.6241453189156,273.33744486876896 L246.1966833701334,260.40910536207423 Z" fill="#eef6ff" stroke="#2f6fb0" stroke-width="3.5999999999999996" />
<text x="256.0" y="613.06" font-size="89.65" font-family="Helvetica, Arial, sans-serif" font-weight="bold" fill="#1f3a4d" text-anchor="middle" dominant-baseline="central">ICON4Py</text>
</svg>